<?xml version="1.0" standalone="no"?>
<!DOCTYPE svg PUBLIC "-//W3C//DTD SVG 20010904//EN"
 "http://www.w3.org/TR/2001/REC-SVG-20010904/DTD/svg10.dtd">
<svg version="1.0" xmlns="http://www.w3.org/2000/svg"
 width="431.000000pt" height="431.000000pt" viewBox="0 0 431.000000 431.000000"
 preserveAspectRatio="xMidYMid meet">
<metadata>
Created by potrace 1.14, written by Peter Selinger 2001-2017
</metadata>
<g transform="translate(0.000000,431.000000) scale(0.100000,-0.100000)"
fill="#000000" stroke="none">
<path d="M702 4107 c-42 -42 -52 -59 -52 -86 0 -30 -2 -33 -25 -27 -14 3 -35
8 -47 11 -18 4 -35 -6 -75 -45 l-53 -51 0 -1399 0 -1399 53 -15 c28 -8 73 -20
99 -26 l47 -12 3 -102 3 -101 80 -21 c352 -94 1146 -307 1170 -314 17 -5 167
-46 335 -90 168 -45 346 -92 395 -106 482 -130 798 -214 807 -214 3 0 29 22
57 49 43 41 51 55 51 85 0 20 1 36 3 36 1 0 23 -7 48 -14 l46 -14 52 52 51 52
0 1400 0 1400 -52 14 c-29 7 -74 19 -100 27 l-48 14 0 99 c0 85 -2 99 -17 104
-10 3 -70 19 -133 35 -63 17 -459 123 -880 236 -421 113 -773 208 -782 210
-10 2 -118 31 -240 64 -252 68 -317 85 -545 146 -89 24 -170 46 -180 49 -14 4
-33 -9 -71 -47z"/>
</g>
</svg>
