<svg xmlns="http://www.w3.org/2000/svg" xmlns:xlink="http://www.w3.org/1999/xlink" version="1.1" id="Layer_1" x="0px" y="0px" viewBox="0 0 281.6 71.5" style="enable-background:new 0 0 281.6 71.5;" xml:space="preserve">
<style type="text/css">
	.st0{fill:#FFFFFF;}
</style>
<g>
	<path class="st0" d="M67.1,13.1c11.6,0,11.2,9.2,11.2,9.2v4.8L70,30.3v-6.6c0-0.9,0.3-4.4-2.5-4.4s-2.8,2.8-2.8,4.4   c0,0,0,26.7,0,29.5c0,2.9,1.1,4.4,2.9,4.4c1.5,0,2.4,0,2.4,0V41.8c0-1.7-1-3.3-2.5-4.1l-0.1-0.1l10.9-4.2v29.9c0,0,0.5,0-10.9,0   s-11-7.7-11-7.7V22.3C56.4,22.3,56,13.1,67.1,13.1z"/>
	<path class="st0" d="M182.7,13.9v17.4l-6.7,2.6v-20h-8.1v43.9c0,2.1-0.7,4.1-2.1,5.7v0H176V40.3l6.7-2.5v25.8h8.1V13.9H182.7z"/>
	<path class="st0" d="M207.3,13.9c-4.8,0-8,0.9-9.8,2.8c-1.2,1.5-1.8,4.3-1.8,8.5c0,0,0,32.5,0,35.7c0,3.2-1.1,6.3-3.2,9.3   c0.5-0.1,4.4-0.9,7.5-3.5c1.9-1.6,2.6-2.6,3.8-3.1v-11l6.3-2.4v13.2h8.1l0-49.6H207.3z M210.1,43.9l-6.3,2.4V22.9   c0-2.3,0.7-3.5,2.2-3.5h4.1V43.9z"/>
	<path class="st0" d="M248.9,70.3c-2.1-3-3.2-6.1-3.2-9.3l0-13.9c0-5.3-2-8.5-7.2-9h0l0,0c3-1.1,6.6-2.5,6.6-7.1v-8.4   c0,0,0.6-8.7-8-8.7s-14.3,0-14.3,0l0,49.6h8.1V42.3v0c3.1-1.2,6.5,1.2,6.5,4.5v17.1c1.2,0.6,2.2,1.5,4,2.9   C244.5,69.4,248.4,70.2,248.9,70.3z M235.3,34.2l-4.3,1.7V19.4h3.6c1.9,0,2.8,0.8,2.8,2.3V31C237.5,32.4,236.6,33.7,235.3,34.2z"/>
	<path class="st0" d="M132.3,70.3c-2.1-3-3.2-6.1-3.2-9.3l0-13.9c0-5.3-2-8.5-7.2-9h0l0,0c3-1.1,6.6-2.5,6.6-7.1v-8.4   c0,0,0.6-8.7-8-8.7s-14.3,0-14.3,0l0,49.6h8.1V42.3l0,0c3.1-1.2,6.5,1.2,6.5,4.5v17c1.2,0.6,2.2,1.5,4,2.9   C127.9,69.4,131.8,70.2,132.3,70.3z M118.7,34.2l-4.3,1.7V19.4h3.6c1.9,0,2.8,0.8,2.8,2.3V31C120.9,32.4,120,33.7,118.7,34.2z"/>
	<path class="st0" d="M46.6,13.9l-4.2,20.4l-4.2-20.4h-9.8l0.8,0.8c1,0.9,1.6,2,2,3.2l7.2,26l0,19.7h8.2V43.7l7.2-25.8   c0.3-1.2,1-2.4,2-3.2l0.8-0.8H46.6z"/>
	<path class="st0" d="M102.8,23.1v-9.2H80.5v0c1.6,1.3,2.6,3.3,2.6,5.4v44.2c0,0,0,0,0,0h19.6v-8.7l-0.9,0.9   c-1.1,1.2-2.6,1.8-4.3,1.8h-6.4V39.9l6.7,0l2.1-6.3l-8.8,0V19.4H97c1.7,0,3.4,0.8,4.5,2.1L102.8,23.1z"/>
	<path class="st0" d="M1.5,1.4v10.5l2-2.2c1.2-1.3,2.8-2,4.5-2h6.5v25.5l5.7-0.9L14.4,35l0,1.1l3.7,0l-3.6,1.4l0,0V39v0.5l3.6,1.1   l-3.6,1.3v1.8v0.6l8.4,1.3l-8.4,2.1l0,6.7c0,3.3-1.2,6.6-3.3,9.1l0,0h17.3l0,0c-2.1-2.6-3.2-5.8-3.2-9.1V7.7h6.5   c1.7,0,3.4,0.7,4.5,2l1.9,2.1V1.4H1.5z"/>
	<path class="st0" d="M163.1,26v-13c0-4.4-1.2-7.3-3.6-8.8c-2.7-1.8-6.4-2.8-11-2.8c-4.2,0-7.6,1-10.6,2.5c-2,1-2.9,2.7-3.3,3.9   l3.3,0.4l-3.6,0.4c-0.4,2-0.4,4.2-0.4,4.2l7.3,0.6l-7.3,1.1v1.4l4.2,0.6l-4.2,1c0,0,0,0,0,3.2c0,4.9,4.1,7.5,5.2,8.2   c1.1,0.7,8.6,5,10.9,7.1c2.3,2.1,2.2,4.5,2.2,8.5c0,0,0,4.7,0,7.2s-0.3,5.5-3.8,5.5s-3.3-2.9-3.3-2.9l-0.1-13.6l-11.3-7v18.5   c0,7.1,3.1,11.4,14.9,11.4c11.4,0,14.3-5.7,14.3-11.6c0,0,0-5.8,0-10.6s0.1-8.2-5.1-11.4c-5.2-3.2-8.5-5-10.4-6.3   c-2-1.3-2.4-2.8-2.4-4.7V13c0,0-0.4-5.2,3.3-5.2c3.8,0,3.8,5.3,3.8,5.3v6.2L163.1,26z"/>
	<path class="st0" d="M275.3,56l-7.9-3.1l6.8,0.8l-1.7-3.4l-3.5-0.9l2.5-1.2l-0.1-0.3l-5.5-2l3.8-1.5l-4.1-8l10.5-18.4   c1-1.7,2.5-3.1,4.3-3.9l1-0.4h-12.7l-9.9,19.6V13.9h0h-8.1v49.6h8.2V40.3l8.1,16.2c0.9,1.9,1.1,4,0.5,6l-0.3,1H279L275.3,56   L275.3,56z"/>
</g>
</svg>